<?xml version="1.0" encoding="UTF-8"?>
<svg width="24px" height="24px" viewBox="0 0 24 24" version="1.1" xmlns="http://www.w3.org/2000/svg" xmlns:xlink="http://www.w3.org/1999/xlink">
    <title>icon/24/color/excel</title>
    <g id="样式" stroke="none" stroke-width="1" fill="none" fill-rule="evenodd">
        <g id="icon" transform="translate(-608.000000, -323.000000)">
            <g id="编组-9" transform="translate(80.000000, 147.000000)">
                <g id="编组-4" transform="translate(0.000000, 176.000000)">
                    <g id="icon/24/color/excel" transform="translate(528.000000, 0.000000)">
                        <rect id="矩形" fill-opacity="0" fill="#D8D8D8" x="0" y="0" width="24" height="24"></rect>
                        <g id="编组" transform="translate(4.000000, 2.000000)" fill-rule="nonzero">
                            <path d="M0.558269365,0 L11.0202373,0 L16,5.03348214 L16,19.4419643 C16,19.7501562 15.7500516,20 15.4417306,20 L0.558269365,20 C0.24994836,20 0,19.7501562 0,19.4419643 L0,0.558035714 C0,0.24984375 0.24994836,0 0.558269365,0 Z" id="路径" fill="#00C090"></path>
                            <path d="M11.0202373,0 L11.0202373,4.47544643 C11.0202373,4.78363839 11.2701856,5.03348214 11.5785066,5.03348214 L16,5.03348214 L11.0202373,0 Z" id="路径" fill="#68DBBF"></path>
                            <path d="M11.6791514,7.2384375 L3.19821354,15.7381696 C2.89339846,16.0436384 2.8940014,16.5383036 3.19959805,16.8430134 C3.5051947,17.1477455 4.00006699,17.1471205 4.30492673,16.8416518 L12.7858423,8.34194196 C13.090702,8.03647321 13.0900768,7.54180804 12.7844801,7.23707589 C12.4788611,6.93238839 11.9840112,6.93299107 11.6791514,7.23845982 L11.6791514,7.2384375 Z" id="路径" fill="#FFFFFF"></path>
                            <path d="M3.19821354,8.31959821 L11.6791514,16.819308 C11.9840112,17.1247768 12.4788611,17.1254018 12.7844801,16.8206696 C13.0900768,16.5159598 13.090702,16.0212946 12.7858423,15.7158259 L4.30492673,7.21611607 C4.00006699,6.91064732 3.5051947,6.91002232 3.19959805,7.21473214 C2.8940014,7.51946429 2.89337613,8.01412946 3.19821354,8.31959821 Z" id="路径" fill="#FFFFFF"></path>
                        </g>
                    </g>
                </g>
            </g>
        </g>
    </g>
</svg>