<svg width="25" height="24" viewBox="0 0 25 24" fill="none" xmlns="http://www.w3.org/2000/svg">
<g id="File icon/folder">
<g id="Frame">
<path id="Vector" d="M20.7371 19.9707H3.2414C2.77414 19.9707 2.39648 19.6349 2.39648 19.2193V6.95059C2.39648 6.53506 2.77414 6.19922 3.2414 6.19922H20.7371C21.2044 6.19922 21.582 6.53506 21.582 6.95059V19.2193C21.582 19.633 21.2023 19.9707 20.7371 19.9707Z" fill="#FFE9B4"/>
<path id="Vector_2" d="M12 9.83008H2.39648V5.51967C2.39648 5.05189 2.77457 4.67383 3.24235 4.67383H9.81485C10.1887 4.67383 10.5176 4.91733 10.6244 5.27616L12 9.83008Z" fill="#FFB02C"/>
<path id="Vector_3" d="M20.7371 19.9707H3.2414C2.77414 19.9707 2.39648 19.593 2.39648 19.1257V8.2044C2.39648 7.73707 2.77414 7.35938 3.2414 7.35938H20.7371C21.2044 7.35938 21.582 7.73707 21.582 8.2044V19.1257C21.582 19.5909 21.2023 19.9707 20.7371 19.9707Z" fill="#FFCA28"/>
</g>
</g>
</svg>
