<svg width="24" height="24" viewBox="0 0 24 24" fill="none" xmlns="http://www.w3.org/2000/svg">
<path d="M4.55827 2H15.0202L20 7.03348V21.442C20 21.7502 19.7501 22 19.4417 22H4.55827C4.24995 22 4 21.7502 4 21.442V2.55804C4 2.24984 4.24995 2 4.55827 2Z" fill="#CCCCCC"/>
<path d="M15.0203 2V6.47545C15.0203 6.78364 15.2702 7.03348 15.5785 7.03348H20L15.0203 2Z" fill="#EAEAEA"/>
<path d="M14.89 15.6563H13.8014L13.8083 14.8527H14.89C15.1602 14.8527 15.3879 14.792 15.5734 14.6707C15.7588 14.547 15.8985 14.3673 15.9923 14.1315C16.0885 13.8957 16.1366 13.6107 16.1366 13.2764V13.0326C16.1366 12.7762 16.1091 12.5507 16.0542 12.3561C16.0015 12.1615 15.9225 11.9978 15.8172 11.865C15.7119 11.7323 15.5825 11.6327 15.4292 11.5663C15.2758 11.4976 15.0995 11.4633 14.9003 11.4633H13.7808V10.6562H14.9003C15.2346 10.6562 15.5402 10.7135 15.8172 10.828C16.0965 10.9401 16.338 11.1015 16.5418 11.3122C16.7455 11.5228 16.9024 11.7746 17.0123 12.0677C17.1244 12.3584 17.1805 12.6823 17.1805 13.0395V13.2764C17.1805 13.6313 17.1244 13.9552 17.0123 14.2483C16.9024 14.5413 16.7455 14.7932 16.5418 15.0038C16.3403 15.2121 16.0988 15.3735 15.8172 15.488C15.5379 15.6002 15.2288 15.6563 14.89 15.6563ZM14.3852 10.6562V15.6563H13.355V10.6562H14.3852Z" fill="white"/>
<path d="M7.6648 10.6562H8.53706L9.8214 14.3273L11.1057 10.6562H11.978L10.1717 15.6563H9.47112L7.6648 10.6562ZM7.19434 10.6562H8.06315L8.22112 14.2345V15.6563H7.19434V10.6562ZM11.5796 10.6562H12.4519V15.6563H11.4217V14.2345L11.5796 10.6562Z" fill="white"/>
</svg>
