<svg viewBox="0 0 24 24" fill="none" xmlns="http://www.w3.org/2000/svg" width="24px" height="24px">
<path d="M4.55827 2H15.0202L20 7.03348V21.442C20 21.7502 19.7501 22 19.4417 22H4.55827C4.24995 22 4 21.7502 4 21.442V2.55804C4 2.24984 4.24995 2 4.55827 2Z" fill="#A15FDE"/>
<path d="M15.5554 10.2778V8.5H11.111V12.1C10.9674 12.0708 10.8187 12.0556 10.6666 12.0556C9.43926 12.0556 8.44434 13.0505 8.44434 14.2778C8.44434 15.5051 9.43926 16.5 10.6666 16.5C11.8938 16.5 12.8888 15.5051 12.8888 14.2778V10.2778H15.5554Z" fill="white"/>
<path d="M15.0203 2V6.47545C15.0203 6.78364 15.2702 7.03348 15.5785 7.03348H20L15.0203 2Z" fill="#EAEAEA"/>
</svg>
