<?xml version="1.0" encoding="UTF-8"?>
<svg width="24px" height="24px" viewBox="0 0 24 24" version="1.1" xmlns="http://www.w3.org/2000/svg" xmlns:xlink="http://www.w3.org/1999/xlink">
    <title>icon/24/color/pdf</title>
    <g id="样式" stroke="none" stroke-width="1" fill="none" fill-rule="evenodd">
        <g id="icon" transform="translate(-704.000000, -323.000000)">
            <g id="编组-9" transform="translate(80.000000, 147.000000)">
                <g id="编组-4" transform="translate(0.000000, 176.000000)">
                    <g id="icon/24/color/pdf" transform="translate(624.000000, 0.000000)">
                        <rect id="矩形" fill-opacity="0" fill="#D8D8D8" x="0" y="0" width="24" height="24"></rect>
                        <g id="编组" transform="translate(4.000000, 2.000000)" fill-rule="nonzero">
                            <path d="M0.558269365,0 L11.0202373,0 L16,5.03348214 L16,19.4419643 C16,19.7501562 15.7500516,20 15.4417306,20 L0.558269365,20 C0.24994836,20 0,19.7501562 0,19.4419643 L0,0.558035714 C0,0.24984375 0.24994836,0 0.558269365,0 Z" id="路径" fill="#FF4867"></path>
                            <path d="M11.0202373,0 L11.0202373,4.47544643 C11.0202373,4.78363839 11.2701856,5.03348214 11.5785066,5.03348214 L16,5.03348214 L11.0202373,0 Z" id="路径" fill="#FF97A9"></path>
                            <path d="M12.0121479,16.6964286 C11.0206615,16.6964286 10.1314501,14.9957812 9.66362038,13.8899107 C8.87661689,13.5615625 8.00908863,13.2548661 7.16634752,13.0566295 C6.42894068,13.5429687 5.1741298,14.2709152 4.21053454,14.2709152 C3.61256106,14.2709152 3.18188974,13.9704464 3.02387718,13.446942 C2.90304536,13.0163616 3.00529798,12.7189732 3.1354194,12.5578795 C3.38947662,12.2109375 3.91308863,12.034375 4.69698814,12.034375 C5.33214236,12.034375 6.13770272,12.1458929 7.0362261,12.3627232 C7.61559805,11.9507366 8.20428193,11.473683 8.72791626,10.96875 C8.49554222,9.86598214 8.24146267,8.07859375 8.88592882,7.25462054 C9.20503559,6.86120536 9.69148918,6.73109375 10.2801731,6.90767857 C10.9246392,7.09352679 11.1693845,7.48694196 11.243746,7.79671875 C11.5164047,8.87160714 10.2801731,10.3213393 9.44672156,11.1732143 C9.63262526,11.9104687 9.87739288,12.6879911 10.1748388,13.4004464 C11.3707858,13.9332589 12.7928988,14.729375 12.9540377,15.5967411 C13.0190872,15.8972098 12.9261465,16.1760045 12.6813789,16.4207366 C12.4706881,16.5941964 12.2476036,16.6964286 12.0121256,16.6964286 L12.0121479,16.6964286 Z M11.1207258,14.8214286 C11.3388528,15.3066964 11.5468193,15.5357143 11.656441,15.5357143 C11.6734124,15.5357143 11.69715,15.5282812 11.7310482,15.4985714 C11.7717348,15.4540179 11.7717348,15.424308 11.7649463,15.3970759 C11.7423475,15.2695536 11.5581186,15.0603571 11.1207258,14.8214286 Z M4.82518911,12.8571429 C4.47638241,12.8571429 4.3805164,12.9413839 4.35133008,12.980692 C4.3430007,12.9933259 4.31799023,13.0312277 4.3430007,13.1294866 C4.36383531,13.2137277 4.42220796,13.3035714 4.60284159,13.3035714 C4.82934264,13.3035714 5.15729239,13.1758259 5.5380321,12.9469866 C5.26568597,12.8866295 5.02527285,12.8571429 4.82518911,12.8571429 Z M8.24005583,12.4237054 C8.44846895,12.4817411 8.66456385,12.5565402 8.86531752,12.6339286 C8.79242987,12.443058 8.73361061,12.244442 8.68376832,12.0535714 C8.53841883,12.1799776 8.39048337,12.3033816 8.24005583,12.4237054 L8.24005583,12.4237054 Z M9.7131277,8.23660714 C9.63898953,8.23660714 9.58698116,8.26404018 9.54017585,8.31497768 C9.40232798,8.48870536 9.38671877,8.92627232 9.49334822,9.48660714 C9.89778088,9.05296875 10.1175604,8.65457589 10.0629393,8.44167411 C10.0551235,8.41033482 10.0317209,8.31497768 9.8431598,8.26011161 C9.7911291,8.24444196 9.75213957,8.23660714 9.7131277,8.23660714 Z" id="形状" fill="#FFFFFF"></path>
                        </g>
                    </g>
                </g>
            </g>
        </g>
    </g>
</svg>