<?xml version="1.0" encoding="UTF-8"?>
<svg width="24px" height="24px" viewBox="0 0 24 24" version="1.1" xmlns="http://www.w3.org/2000/svg" xmlns:xlink="http://www.w3.org/1999/xlink">
    <title>icon/24/color/rar</title>
    <g id="样式" stroke="none" stroke-width="1" fill="none" fill-rule="evenodd">
        <g id="icon" transform="translate(-656.000000, -323.000000)">
            <g id="编组-9" transform="translate(80.000000, 147.000000)">
                <g id="编组-4" transform="translate(0.000000, 176.000000)">
                    <g id="icon/24/color/rar" transform="translate(576.000000, 0.000000)">
                        <rect id="矩形" fill-opacity="0" fill="#D8D8D8" x="0" y="0" width="24" height="24"></rect>
                        <g id="编组" transform="translate(4.000000, 2.000000)" fill-rule="nonzero">
                            <path d="M0.558269365,0 L11.0202373,0 L16,5.03348214 L16,19.4419643 C16,19.7501562 15.7500516,20 15.4417306,20 L0.558269365,20 C0.24994836,20 0,19.7501562 0,19.4419643 L0,0.558035714 C0,0.24984375 0.24994836,0 0.558269365,0 Z" id="路径" fill="#576A95"></path>
                            <path d="M11.0202373,0 L11.0202373,4.47544643 C11.0202373,4.78363839 11.2701856,5.03348214 11.5785066,5.03348214 L16,5.03348214 L11.0202373,0 Z" id="路径" fill="#BBC3D4"></path>
                            <path d="M9.36106071,12.2901116 L9.36106071,15.0061384 C9.36099356,15.1863013 9.2892317,15.3590375 9.16160223,15.48625 C9.03387457,15.6136215 8.86081658,15.6851339 8.68039637,15.6851339 L7.29057362,15.6851339 C7.11017523,15.6851339 6.93713025,15.6136673 6.80936776,15.4863616 C6.6816856,15.3590931 6.60990928,15.1862665 6.60990928,15.0060268 L6.60990928,12.2901116 L9.36106071,12.2901116 Z M8.6804187,13.8461384 L7.29055129,13.8461384 L7.29055129,15.2098884 L8.6804187,15.2098884 L8.6804187,13.8461384 Z M9.33828332,9.57412946 L9.33828332,10.9378795 L7.97134962,10.9378795 L7.97134962,9.57410714 L9.33830565,9.57410714 L9.33828332,9.57412946 Z M7.988388,0 L7.988388,1.375 L9.36106071,1.375 L9.36106071,2.75 L7.98820935,2.75 L7.98820935,4.023125 L9.36106071,4.023125 L9.36106071,5.398125 L7.98836567,5.398125 L7.98836567,6.75625 L9.36106071,6.75625 L9.36106071,8.114375 L7.98836567,8.114375 L7.98836567,9.47238839 L6.60990928,9.47238839 L6.60990928,8.11426339 L7.98260433,8.11426339 L7.98260433,6.75613839 L6.60990928,6.75613839 L6.60990928,5.398125 L7.98260433,5.398125 L7.98260433,4.023125 L6.60990928,4.023125 L6.60990928,2.648125 L7.98260433,2.648125 L7.98260433,1.375 L6.60990928,1.375 L6.60990928,0 L7.98836567,0 L7.988388,0 Z" id="形状" fill="#FFFFFF"></path>
                        </g>
                    </g>
                </g>
            </g>
        </g>
    </g>
</svg>