<svg width="24" height="24" viewBox="0 0 24 24" fill="none" xmlns="http://www.w3.org/2000/svg">
<path d="M4.55827 2H15.0202L20 7.03348V21.442C20 21.7502 19.7501 22 19.4417 22H4.55827C4.24995 22 4 21.7502 4 21.442V2.55804C4 2.24984 4.24995 2 4.55827 2Z" fill="#CCCCCC"/>
<path d="M14.9968 16V12.592H13.6528V11.8H17.3128V12.592H15.9688V16H14.9968Z" fill="white"/>
<path d="M13.7932 16H12.6712L11.6572 14.542L10.6612 16H9.54517L11.0992 13.864L9.62317 11.8H10.7272L11.6932 13.162L12.6412 11.8H13.6912L12.2272 13.828L13.7932 16Z" fill="white"/>
<path d="M7.36793 16V12.592H6.02393V11.8H9.68393V12.592H8.33993V16H7.36793Z" fill="white"/>
<path d="M15.0203 2V6.47545C15.0203 6.78364 15.2702 7.03348 15.5785 7.03348H20L15.0203 2Z" fill="#EAEAEA"/>
</svg>
