<?xml version="1.0" encoding="UTF-8"?>
<svg width="24px" height="24px" viewBox="0 0 24 24" version="1.1" xmlns="http://www.w3.org/2000/svg" xmlns:xlink="http://www.w3.org/1999/xlink">
    <title>icon/24/color/unknow</title>
    <g id="样式" stroke="none" stroke-width="1" fill="none" fill-rule="evenodd">
        <g id="icon" transform="translate(-512.000000, -323.000000)">
            <g id="编组-9" transform="translate(80.000000, 147.000000)">
                <g id="编组-4" transform="translate(0.000000, 176.000000)">
                    <g id="icon/24/color/unknow" transform="translate(432.000000, 0.000000)">
                        <rect id="矩形" fill-opacity="0" fill="#D8D8D8" x="0" y="0" width="24" height="24"></rect>
                        <g id="编组" transform="translate(4.000000, 2.000000)" fill-rule="nonzero">
                            <path d="M0.558269365,0 L11.0202373,0 L16,5.03348214 L16,19.4419643 C16,19.7501562 15.7500516,20 15.4417306,20 L0.558269365,20 C0.24994836,20 0,19.7501562 0,19.4419643 L0,0.558035714 C0,0.24984375 0.24994836,0 0.558269365,0 Z" id="路径" fill="#CCCCCC"></path>
                            <path d="M11.0202373,0 L11.0202373,4.47544643 C11.0202373,4.78363839 11.2701856,5.03348214 11.5785066,5.03348214 L16,5.03348214 L11.0202373,0 Z" id="路径" fill="#EAEAEA"></path>
                            <path d="M7.99441731,6.70758929 C8.75676762,6.70758929 9.52407537,6.95741071 10.1107271,7.41495536 C10.7837097,7.93979911 11.1765527,8.69933036 11.1765527,9.58705357 C11.1765527,10.7416295 10.382381,11.7973884 8.8840307,12.8011161 L8.8764829,12.8061384 L8.8764829,14.1071429 C8.8764829,14.5037946 8.55802373,14.8260937 8.16272435,14.8325 L8.15073273,14.8325893 C7.74989532,14.8325893 7.42498255,14.5078125 7.42498255,14.1071429 L7.42498255,12.4107143 C7.42498096,12.1599127 7.55457836,11.9269005 7.76769295,11.7945312 C9.10990649,10.9608929 9.72505234,10.205692 9.72505234,9.58705357 C9.72505234,9.15919643 9.54752268,8.81595982 9.21783112,8.55883929 C8.89318632,8.30564732 8.44118911,8.15848214 7.99441731,8.15848214 C7.54958828,8.15848214 7.10440195,8.30446429 6.78549616,8.55622768 C6.46127565,8.81214286 6.28611305,9.15600446 6.28611305,9.58705357 C6.28611305,9.98772321 5.96120028,10.3125 5.56036288,10.3125 C5.15952547,10.3125 4.8346127,9.98772321 4.8346127,9.58705357 C4.8346127,8.70104911 5.22109142,7.94234375 5.88594557,7.41754464 C6.46826518,6.95790179 7.23144173,6.70758929 7.99441731,6.70758929 Z M8.18422889,17.3660714 C8.64669923,17.3660714 9.02163294,16.9912946 9.02163294,16.5290179 C9.02163294,16.0667411 8.64669923,15.6919643 8.18422889,15.6919643 C7.72175855,15.6919643 7.34682484,16.0667411 7.34682484,16.5290179 C7.34682484,16.9912946 7.72175855,17.3660714 8.18422889,17.3660714 Z" id="形状" fill="#FFFFFF"></path>
                        </g>
                    </g>
                </g>
            </g>
        </g>
    </g>
</svg>