<svg viewBox="0 0 56 56" fill="none" xmlns="http://www.w3.org/2000/svg" width="24px" height="24px">
<path d="M7 6.99998C7 5.7623 7.49167 4.57532 8.36683 3.70015C9.242 2.82498 10.429 2.33331 11.6667 2.33331H34.034C34.6528 2.33345 35.2462 2.57936 35.6837 3.01698L48.3163 15.6496C48.7539 16.0871 48.9999 16.6805 49 17.2993V49C49 50.2377 48.5083 51.4246 47.6332 52.2998C46.758 53.175 45.571 53.6666 44.3333 53.6666H11.6667C10.429 53.6666 9.242 53.175 8.36683 52.2998C7.49167 51.4246 7 50.2377 7 49V6.99998Z" fill="#3370FF"/>
<path opacity="0.7" d="M35 3.46032C34.9999 3.36811 35.0272 3.27795 35.0783 3.20121C35.1294 3.12447 35.2021 3.06459 35.2873 3.02915C35.3724 2.9937 35.4661 2.98426 35.5566 3.00203C35.6471 3.0198 35.7303 3.06398 35.7957 3.12899L48.2067 15.54C48.2717 15.6054 48.3159 15.6886 48.3336 15.7791C48.3514 15.8695 48.342 15.9633 48.3065 16.0484C48.2711 16.1335 48.2112 16.2062 48.1344 16.2574C48.0577 16.3085 47.9675 16.3357 47.8753 16.3357H39.6667C38.429 16.3357 37.242 15.844 36.3668 14.9688C35.4917 14.0937 35 12.9067 35 11.669V3.46032Z" fill="#245BDB"/>
<path d="M16.3334 25.0833C16.3334 24.6192 16.5177 24.1741 16.8459 23.8459C17.1741 23.5177 17.6192 23.3333 18.0834 23.3333H30.3334C30.7975 23.3333 31.2426 23.5177 31.5708 23.8459C31.899 24.1741 32.0834 24.6192 32.0834 25.0833V27.16L34.7247 25.676C34.9909 25.5261 35.2917 25.4485 35.5972 25.4509C35.9027 25.4533 36.2022 25.5356 36.466 25.6897C36.7298 25.8438 36.9486 26.0642 37.1008 26.3291C37.253 26.594 37.3332 26.8942 37.3334 27.1996V35.217C37.3332 35.5225 37.253 35.8226 37.1008 36.0875C36.9486 36.3524 36.7298 36.5728 36.466 36.7269C36.2022 36.881 35.9027 36.9633 35.5972 36.9657C35.2917 36.9681 34.9909 36.8905 34.7247 36.7406L32.0834 35.2543V37.3333C32.0834 37.7974 31.899 38.2426 31.5708 38.5708C31.2426 38.8989 30.7975 39.0833 30.3334 39.0833H18.0834C17.6192 39.0833 17.1741 38.8989 16.8459 38.5708C16.5177 38.2426 16.3334 37.7974 16.3334 37.3333V25.0833ZM21.5834 30.3333C22.0475 30.3333 22.4926 30.1489 22.8208 29.8207C23.149 29.4926 23.3334 29.0474 23.3334 28.5833C23.3334 28.1192 23.149 27.6741 22.8208 27.3459C22.4926 27.0177 22.0475 26.8333 21.5834 26.8333C21.1192 26.8333 20.6741 27.0177 20.3459 27.3459C20.0177 27.6741 19.8334 28.1192 19.8334 28.5833C19.8334 29.0474 20.0177 29.4926 20.3459 29.8207C20.6741 30.1489 21.1192 30.3333 21.5834 30.3333Z" fill="white"/>
</svg>
