<svg width="1em" height="1em" viewBox="0 0 21 20" fill="none" xmlns="http://www.w3.org/2000/svg" width="24px" height="24px">
<g>
<g>
<path  d="M19.2432 10.0001C19.2432 14.9707 15.2138 19.0001 10.2432 19.0001C5.27261 19.0001 1.24316 14.9707 1.24316 10.0001C1.24316 5.0295 5.27261 1.00006 10.2432 1.00006C15.2138 1.00006 19.2432 5.0295 19.2432 10.0001Z" fill="currentColor" fill-opacity="0.88"/>
<path  fill-rule="evenodd" clip-rule="evenodd" d="M14.4826 5.76012C14.7097 5.9872 14.7877 6.32378 14.6836 6.62759L12.823 12.057C12.7388 12.3028 12.5458 12.4958 12.3 12.5801L6.87075 14.4407C6.56694 14.5448 6.23036 14.4669 6.00327 14.2398C5.77618 14.0127 5.69821 13.6761 5.80231 13.3723L7.66282 7.94291C7.74703 7.69715 7.94009 7.50409 8.18585 7.41986L13.6151 5.55919C13.9189 5.45507 14.2555 5.53303 14.4826 5.76012ZM9.1208 8.87781L7.95078 12.2922L11.3651 11.1221L12.5351 7.7077L9.1208 8.87781Z" fill="white"/>
</g>
</g>
</svg>
