<?xml version="1.0" encoding="UTF-8"?>
<svg width="24px" height="24px" viewBox="0 0 24 24" version="1.1" xmlns="http://www.w3.org/2000/svg" xmlns:xlink="http://www.w3.org/1999/xlink">
    <title>icon/24/color/word</title>
    <g id="样式" stroke="none" stroke-width="1" fill="none" fill-rule="evenodd">
        <g id="icon" transform="translate(-560.000000, -323.000000)">
            <g id="编组-9" transform="translate(80.000000, 147.000000)">
                <g id="编组-4" transform="translate(0.000000, 176.000000)">
                    <g id="icon/24/color/word" transform="translate(480.000000, 0.000000)">
                        <rect id="矩形" fill-opacity="0" fill="#D8D8D8" x="0" y="0" width="24" height="24"></rect>
                        <g id="编组" transform="translate(4.000000, 2.000000)" fill-rule="nonzero">
                            <path d="M0.558269365,0 L11.0202373,0 L16,5.03348214 L16,19.4419643 C16,19.7501562 15.7500516,20 15.4417306,20 L0.558269365,20 C0.24994836,20 0,19.7501562 0,19.4419643 L0,0.558035714 C0,0.24984375 0.24994836,0 0.558269365,0 Z" id="路径" fill="#4A8DFF"></path>
                            <path d="M11.0202373,0 L11.0202373,4.47544643 C11.0202373,4.78363839 11.2701856,5.03348214 11.5785066,5.03348214 L16,5.03348214 L11.0202373,0 Z" id="路径" fill="#E5F0FF"></path>
                            <path d="M12.0397041,16.0848214 C12.5208207,16.6115179 13.3984648,16.2712723 13.3984648,15.5580357 L13.3984648,7.25446429 L11.8353105,7.25446429 L11.8353105,13.5437054 L8.72791626,10.1417411 C8.41798744,9.80243304 7.88347802,9.80243304 7.5735492,10.1417411 L4.46615492,13.5437054 L4.46615492,7.25446429 L2.9030007,7.25446429 L2.9030007,15.5580357 C2.9030007,16.2712946 3.7806448,16.6115402 4.26176134,16.0848214 L8.15073273,11.8271652 L12.0397041,16.0848214 Z" id="路径" fill="#FFFFFF"></path>
                        </g>
                    </g>
                </g>
            </g>
        </g>
    </g>
</svg>