<svg t="1747028094813" class="icon" viewBox="0 0 1024 1024" version="1.1" xmlns="http://www.w3.org/2000/svg" p-id="8411" width="24px" height="24px"><path d="M213.333333 85.333333h451.84a42.666667 42.666667 0 0 1 30.165334 12.501334l145.493333 145.749333a42.666667 42.666667 0 0 1 12.501333 30.165333V896a42.666667 42.666667 0 0 1-42.666666 42.666667H213.333333a42.666667 42.666667 0 0 1-42.666666-42.666667V128a42.666667 42.666667 0 0 1 42.666666-42.666667z" fill="#FE8D47" p-id="8412"></path><path d="M853.333333 298.666667h-213.333333V85.333333l42.666667 8.576L846.506667 256z" fill="#000000" opacity=".104" p-id="8413"></path><path d="M853.333333 256h-170.666666V85.333333z" fill="#FEC29C" p-id="8414"></path><path d="M347.178667 730.496a164.821333 164.821333 0 0 1 329.642666 0 36.821333 36.821333 0 0 1-73.642666 0 91.178667 91.178667 0 1 0-182.357334 0 36.821333 36.821333 0 0 1-73.642666 0z" fill="#FFFFFF" p-id="8415"></path><path d="M676.821333 421.504a164.821333 164.821333 0 0 1-329.642666 0 36.821333 36.821333 0 1 1 73.642666 0 91.178667 91.178667 0 1 0 182.357334 0 36.821333 36.821333 0 0 1 73.642666 0z" fill="#FFFFFF" p-id="8416"></path></svg>