<svg t="1747021551301" class="icon" viewBox="0 0 1024 1024" version="1.1" xmlns="http://www.w3.org/2000/svg" p-id="3587" width="24px" height="24px"><path d="M215.578947 107.789474h404.210527l242.526315 242.526315v512a53.894737 53.894737 0 0 1-53.894736 53.894737H215.578947a53.894737 53.894737 0 0 1-53.894736-53.894737V161.684211a53.894737 53.894737 0 0 1 53.894736-53.894737z" fill="#DE9C09" p-id="3588"></path><path d="M619.654737 134.736842l242.526316 215.578947v20.641685h-194.479158a40.205474 40.205474 0 0 1-28.483369-11.479579 53.221053 53.221053 0 0 1-19.725473-31.905684z" fill="#777777" p-id="3589"></path><path d="M619.789474 107.789474l242.526315 242.526315h-209.030736a44.624842 44.624842 0 0 1-26.758737-9.269894 39.181474 39.181474 0 0 1-6.736842-26.246737z" fill="#FFFFFF" p-id="3590"></path><path d="M400.949895 754.526316h-29.992421l-30.962527-55.376842a55.619368 55.619368 0 0 1-3.152842-7.141053h-0.323368q-0.943158 2.317474-3.152842 7.168L301.487158 754.526316h-30.234947l49.421473-75.88379-45.406316-75.021473h30.639158l27.24379 50.903579q2.694737 5.066105 4.742737 10.105263h0.323368q3.045053-6.629053 5.389474-10.536421L371.873684 603.621053h28.133053l-46.538105 74.805894z m183.242105 0h-24.845474v-97.684211q0-11.991579 1.482106-29.372631h-0.431158a101.429895 101.429895 0 0 1-4.096 14.201263L511.164632 754.526316h-17.273264l-45.136842-111.993263a105.498947 105.498947 0 0 1-4.122947-15.063579h-0.296421q0.835368 9.054316 0.835368 29.642105V754.526316h-23.147789v-150.905263h35.247158l39.693473 100.513684a148.668632 148.668632 0 0 1 5.901474 17.273263h0.538947q3.907368-11.883789 6.305685-17.677474l40.421052-100.109473h34.007579z m121.263158 0h-83.536842v-150.905263H646.736842v129.751579h58.529684z" fill="#FFFFFF" p-id="3591"></path></svg>